HIERARCHY
ROOT cup1
{
	OFFSET 0.000000 0.000000 0.000000
	CHANNELS 6 Xposition Yposition Zposition Yrotation Xrotation Zrotation
	End Site
	{
		OFFSET 0.000000 0.000000 0.000000
	}
}
MOTION
Frames: 203
Frame Time: 0.008333334
1.289844 6.009358 3.005647 3.000669 -7.817657 -12.313230 
1.298205 6.009672 2.990975 5.563191 -8.275513 -13.241820 
1.306577 6.010429 2.975475 8.140965 -8.583527 -14.538060 
1.313986 6.010274 2.959172 10.845680 -9.004211 -15.711180 
1.320947 6.010276 2.941846 13.561860 -9.493683 -16.713750 
1.328616 6.008713 2.924766 16.045920 -9.658020 -18.085510 
1.335220 6.007025 2.906994 18.380880 -10.051700 -19.159700 
1.342301 6.005662 2.890037 20.484850 -10.570190 -20.218230 
1.349225 6.003602 2.874444 22.366490 -11.073270 -21.341800 
1.355362 6.002151 2.858803 24.197530 -11.397030 -22.435210 
1.360923 6.001366 2.843807 26.102510 -11.677730 -23.527950 
1.365847 6.000759 2.828897 28.369170 -11.877170 -24.599980 
1.369656 6.000151 2.813622 30.939100 -12.177340 -25.636840 
1.372236 5.999634 2.797235 33.686120 -11.986300 -26.906520 
1.374810 5.998162 2.780782 36.723900 -11.728580 -28.219120 
1.376746 5.996591 2.763659 39.895710 -11.533020 -29.473820 
1.379576 5.993923 2.746933 43.198540 -11.136690 -30.700960 
1.383109 5.990965 2.732926 46.286840 -10.844670 -31.901000 
1.387433 5.986667 2.721911 49.254770 -10.324770 -33.011660 
1.391928 5.983716 2.713733 51.838280 -9.605194 -33.931580 
1.395623 5.982056 2.710504 53.748860 -9.207764 -34.295500 
1.400792 5.983235 2.711069 54.674550 -8.199158 -34.692320 
1.405531 5.985945 2.713808 55.259220 -7.522552 -34.676270 
1.409465 5.989533 2.717416 55.778180 -6.923676 -34.403720 
1.413735 5.993491 2.720611 56.485020 -5.975708 -34.468170 
1.417232 5.997118 2.721828 57.665730 -5.007446 -34.288240 
1.421894 5.999652 2.723665 59.260460 -3.517181 -34.338870 
1.427389 6.001870 2.723742 61.515910 -1.888336 -34.328550 
1.434922 6.002067 2.724177 63.761350 0.443496 -34.633030 
1.443593 6.000228 2.722449 66.231180 2.926145 -34.791780 
1.451647 5.996661 2.720106 68.812110 5.315754 -34.917360 
1.459383 5.993170 2.719478 71.100490 7.316822 -34.779720 
1.466671 5.989354 2.720366 72.758430 8.578470 -34.422060 
1.472925 5.987638 2.722682 73.320570 9.060709 -34.198460 
1.480519 5.986148 2.726115 73.517260 9.467355 -33.961580 
1.487485 5.983187 2.728690 73.566570 9.792166 -33.869690 
1.495514 5.980347 2.731261 73.898030 10.211440 -33.656620 
1.503406 5.976565 2.733675 74.228990 10.935530 -33.397370 
1.511838 5.972720 2.736912 74.620270 11.823550 -33.033510 
1.521510 5.968368 2.739962 75.295610 12.752210 -32.353940 
1.530425 5.963799 2.743608 76.003420 14.019080 -31.990840 
1.539888 5.959068 2.747214 76.834840 15.413120 -31.455600 
1.550144 5.953998 2.751435 77.743550 16.849500 -30.980590 
1.560963 5.948336 2.754019 78.887280 17.927780 -30.021360 
1.571941 5.942492 2.758383 79.788960 19.106780 -29.461270 
1.582202 5.938224 2.763679 80.521350 20.055360 -28.643400 
1.592847 5.934402 2.770113 80.727320 21.206050 -28.249660 
1.603782 5.930651 2.776946 81.160280 22.024120 -27.394500 
1.614599 5.925572 2.783557 81.562480 22.933430 -26.451020 
1.626139 5.920389 2.789572 82.271680 23.863610 -25.622410 
1.638039 5.915267 2.795850 83.034440 25.227130 -24.917760 
1.650407 5.909761 2.801721 83.806230 26.373870 -24.064640 
1.663032 5.903003 2.807788 84.675030 27.681240 -23.020360 
1.675555 5.896123 2.814233 85.693790 29.094480 -22.073550 
1.688094 5.887516 2.819671 87.004980 30.418380 -20.884890 
1.699925 5.878602 2.823218 88.469740 31.867790 -19.686950 
1.709713 5.869959 2.826054 90.183350 33.023010 -18.306580 
1.717572 5.862490 2.827153 91.834910 34.143010 -17.089420 
1.723233 5.857337 2.829316 93.241230 34.840040 -15.876980 
1.729086 5.852222 2.830832 94.572060 35.551800 -14.869140 
1.734218 5.848136 2.832694 95.796720 36.186450 -14.006900 
1.739937 5.843481 2.835180 97.315430 36.949820 -12.992680 
1.745993 5.838140 2.838790 99.190360 37.565980 -11.326080 
1.752411 5.832386 2.842054 101.253900 38.334970 -9.676575 
1.760007 5.826120 2.845554 103.579300 39.054090 -7.999176 
1.767494 5.819314 2.849780 105.939800 39.961240 -6.110596 
1.775628 5.812726 2.853848 108.719200 40.675700 -3.968872 
1.781342 5.805882 2.858974 111.634600 41.268750 -1.432037 
1.782974 5.800945 2.863385 114.530500 41.922790 0.663609 
1.782722 5.797790 2.867294 117.198300 41.786920 2.719874 
1.778655 5.797522 2.871073 119.244000 41.495870 4.236348 
1.773635 5.799604 2.872852 120.703900 40.939990 4.918303 
1.767562 5.802331 2.872816 121.438900 40.066730 5.134874 
1.761976 5.805033 2.872222 121.619000 39.416810 5.086523 
1.757972 5.806570 2.869549 121.780600 39.125890 4.924259 
1.754569 5.804923 2.864639 122.404400 39.097440 5.089105 
1.752810 5.801162 2.857082 123.565500 39.233440 5.313240 
1.751732 5.794255 2.848543 125.336100 39.461800 6.063022 
1.751222 5.785568 2.836967 128.257400 39.769980 7.427246 
1.750217 5.775776 2.825121 131.844100 40.152410 9.237582 
1.748465 5.767135 2.813794 136.028000 40.219760 11.566190 
1.746182 5.760069 2.804610 140.830600 39.839540 14.552840 
1.741281 5.757608 2.801855 145.085900 39.348340 17.182680 
1.735360 5.758159 2.802911 149.277800 38.485380 19.492010 
1.728719 5.760984 2.808656 152.205600 37.357860 21.376270 
1.722495 5.764996 2.814412 154.056500 36.360340 22.229200 
1.715768 5.767752 2.820015 154.665700 35.612370 22.405220 
1.708683 5.769150 2.822094 154.425400 34.995000 22.157650 
1.701496 5.769876 2.821281 153.893500 34.915610 21.376940 
1.694810 5.769428 2.816936 153.170300 35.198890 20.420420 
1.688695 5.768218 2.811473 152.320200 35.608730 19.410800 
1.683790 5.766294 2.805118 151.501700 36.002750 18.559180 
1.679777 5.764376 2.799265 150.670100 36.295610 17.802910 
1.675892 5.762396 2.793239 149.978700 36.734650 17.022420 
1.671354 5.760713 2.787746 149.204100 36.918810 16.231480 
1.666343 5.760454 2.783634 148.373100 37.170340 15.218430 
1.658304 5.760976 2.780088 146.738500 37.251230 13.960720 
1.649889 5.762561 2.777535 145.194100 37.083780 12.809000 
1.641837 5.764979 2.775888 144.342800 36.792240 11.955140 
1.634183 5.768885 2.775250 143.787000 36.496690 11.223960 
1.628314 5.771439 2.775041 143.353100 36.186950 10.840980 
1.623523 5.773983 2.774397 143.364500 36.039870 10.749130 
1.620157 5.776405 2.774432 143.542900 35.803000 11.003870 
1.618586 5.777726 2.774029 144.317900 35.720870 11.493610 
1.617957 5.777889 2.773274 145.288200 35.465650 12.276580 
1.617871 5.777456 2.773009 146.545000 35.251020 13.344110 
1.618285 5.776636 2.771394 147.947400 35.295090 14.196180 
1.618462 5.776355 2.770644 148.884600 35.183990 15.029970 
1.617038 5.776141 2.768376 150.054300 35.266250 15.535410 
1.613794 5.775622 2.765401 150.834200 35.083860 16.131390 
1.609414 5.775110 2.759497 151.740300 35.100980 16.278800 
1.603234 5.774911 2.753303 151.913600 35.036520 15.938360 
1.596422 5.776036 2.748343 151.532000 35.309970 15.025730 
1.591915 5.778897 2.745569 150.654500 35.780780 13.680280 
1.587582 5.780361 2.745169 149.058100 35.724780 12.754060 
1.586576 5.782425 2.746461 147.468200 35.879450 11.445240 
1.587391 5.784323 2.749418 146.094400 36.035400 10.555990 
1.589082 5.786716 2.753287 144.614600 36.151950 9.632647 
1.592011 5.788640 2.757046 143.485500 36.197430 8.966944 
1.594023 5.790842 2.760361 142.307900 36.177070 8.304029 
1.595837 5.793839 2.763717 141.131100 36.018350 7.290301 
1.595052 5.797638 2.767599 139.866300 35.849940 6.426872 
1.592967 5.803492 2.772697 138.119500 35.527080 5.146469 
1.588451 5.809879 2.777530 136.215400 35.293400 3.726919 
1.584949 5.816258 2.781010 134.306000 34.882190 2.345912 
1.581712 5.820957 2.785067 132.685000 34.734180 0.869148 
1.579303 5.824523 2.789030 131.095500 34.413740 -0.071930 
1.580262 5.826878 2.793705 129.814600 34.357860 -0.678894 
1.582888 5.827801 2.798508 129.047900 34.401520 -0.987854 
1.586732 5.828243 2.804103 128.583800 34.446040 -0.919647 
1.590052 5.829195 2.809835 128.423700 34.520250 -0.670075 
1.593912 5.830312 2.815228 128.473500 34.454880 -0.186005 
1.596895 5.831446 2.819975 128.549600 34.551830 0.055879 
1.599271 5.832999 2.824680 128.576200 34.527970 0.318713 
1.602213 5.834162 2.829851 128.715900 34.314190 0.828065 
1.604272 5.834975 2.834100 128.932000 34.120330 1.409649 
1.606674 5.836357 2.838095 129.463700 33.973550 1.982697 
1.607723 5.838103 2.841004 130.252300 33.872770 2.524865 
1.608962 5.839540 2.842271 131.510300 33.812160 3.279716 
1.610112 5.840438 2.841829 133.348900 33.766690 4.395028 
1.610700 5.840860 2.839282 135.871000 33.724880 5.574978 
1.611512 5.841227 2.835401 139.182200 33.394740 7.574432 
1.613762 5.841833 2.831160 143.287000 33.290420 9.550695 
1.616857 5.843071 2.828176 147.830100 32.698110 12.120710 
1.621251 5.844141 2.826485 152.971300 31.576790 15.036130 
1.626573 5.845077 2.826139 158.152500 30.085570 18.162650 
1.633629 5.844767 2.828681 163.368000 28.175970 21.215710 
1.643306 5.842974 2.833634 168.361100 25.645650 24.455610 
1.655219 5.839286 2.840322 173.209700 22.909150 27.466970 
1.669721 5.832673 2.849452 177.656600 19.904140 30.561970 
1.685836 5.824043 2.857349 -178.228700 16.729090 33.509170 
1.700865 5.813681 2.863748 -174.599400 13.653430 35.911400 
1.712010 5.804005 2.864984 -171.589400 11.129100 37.851260 
1.717317 5.796440 2.861741 -168.802600 9.328113 39.159490 
1.717532 5.792006 2.854272 -166.165800 8.150978 39.791610 
1.713851 5.790310 2.844524 -164.083100 7.307992 40.439790 
1.708468 5.790260 2.834811 -162.427300 6.796715 40.728940 
1.702698 5.791966 2.828526 -161.006600 6.506988 40.746070 
1.697148 5.795095 2.823895 -159.989100 6.241179 40.782780 
1.692101 5.798816 2.821256 -159.240300 6.232294 40.516970 
1.686466 5.802715 2.819883 -158.588800 5.717557 40.513960 
1.682547 5.806714 2.819660 -157.406700 5.323466 40.327400 
1.680402 5.809987 2.821878 -155.884700 4.545146 40.055620 
1.681355 5.809865 2.824395 -154.410800 3.089233 40.322010 
1.685877 5.807703 2.826971 -152.656100 1.658009 40.523410 
1.690950 5.803567 2.828857 -150.821800 -0.023499 41.115670 
1.695989 5.800861 2.827035 -148.745100 -1.429688 41.416790 
1.697553 5.797503 2.823548 -146.666800 -2.809692 41.734450 
1.698768 5.795478 2.821374 -144.836100 -3.651642 41.855340 
1.698364 5.794887 2.819621 -143.520500 -4.365814 41.914980 
1.697671 5.797046 2.820389 -142.678600 -4.863312 41.673450 
1.696482 5.800625 2.824491 -142.149300 -5.130859 41.245910 
1.695089 5.805896 2.831041 -141.707100 -5.431885 40.725060 
1.692702 5.811698 2.837513 -141.538600 -5.657532 40.075600 
1.689761 5.816577 2.843327 -141.199700 -5.856018 39.558260 
1.688314 5.819584 2.846876 -140.635900 -6.033264 39.056450 
1.687503 5.820370 2.848752 -140.122500 -6.467346 38.943040 
1.687244 5.819559 2.848003 -139.534600 -6.720154 38.844730 
1.686933 5.817410 2.845764 -138.803100 -6.940704 38.851960 
1.684747 5.816133 2.843724 -138.041000 -7.031738 38.632490 
1.681965 5.816096 2.843674 -137.783300 -7.062500 38.534510 
1.678848 5.816902 2.843736 -138.163500 -6.538849 38.333240 
1.675657 5.817981 2.843430 -138.940000 -5.677338 38.105950 
1.672657 5.819232 2.842738 -139.801100 -4.798462 37.805350 
1.669010 5.820707 2.842713 -140.785200 -3.975739 37.451260 
1.666148 5.822756 2.843046 -141.451200 -3.141388 36.957780 
1.663035 5.825388 2.842939 -142.226300 -2.565674 36.668210 
1.659493 5.828557 2.843725 -142.591300 -2.174133 36.393460 
1.654832 5.831514 2.843860 -142.891100 -1.934387 36.124820 
1.649243 5.834111 2.843387 -142.992100 -1.573792 35.774840 
1.643813 5.836886 2.842403 -143.180300 -1.399719 35.721680 
1.636985 5.839758 2.841630 -143.197500 -1.379791 35.625490 
1.631352 5.842028 2.840350 -143.206900 -1.620239 35.726080 
1.625538 5.844237 2.839825 -142.684300 -1.820709 35.401760 
1.619404 5.846613 2.836516 -142.004500 -2.668121 35.714870 
1.613478 5.846752 2.832587 -140.768400 -3.586975 35.937490 
1.606589 5.846098 2.826862 -139.449500 -4.750031 36.377120 
1.597991 5.844774 2.819564 -138.030300 -5.580200 36.620850 
1.589139 5.842713 2.811830 -136.701000 -6.203094 36.974720 
1.580709 5.840677 2.802808 -135.610400 -6.413300 37.197080 
1.572246 5.836477 2.795334 -134.945600 -6.249878 37.358650 
1.565053 5.832946 2.788369 -134.692500 -5.911438 37.642840 
1.558618 5.829898 2.783578 -134.703400 -5.236206 37.903480 
